<svg xmlns="http://www.w3.org/2000/svg" width="6.066" height="9.511" viewBox="0 0 6.066 9.511"><path d="M78.811,2.155a.21.21,0,0,0-.155-.061H77.5a2.338,2.338,0,0,0-.432-.973h1.574a.208.208,0,0,0,.216-.216V.216A.208.208,0,0,0,78.642,0h-5.62a.208.208,0,0,0-.216.216v.9a.219.219,0,0,0,.216.216H74q1.425,0,1.81.763h-2.79a.208.208,0,0,0-.216.216V3a.208.208,0,0,0,.216.216h2.884a1.32,1.32,0,0,1-.692.844,3.048,3.048,0,0,1-1.435.291h-.757a.219.219,0,0,0-.216.216v.858a.2.2,0,0,0,.061.149q1.3,1.378,3.364,3.857a.2.2,0,0,0,.169.081h1.317a.2.2,0,0,0,.2-.122.185.185,0,0,0-.027-.23q-1.972-2.418-3.1-3.621A3.426,3.426,0,0,0,76.649,4.8a2.525,2.525,0,0,0,.871-1.581h1.135A.208.208,0,0,0,78.872,3V2.31A.21.21,0,0,0,78.811,2.155Z" transform="translate(-72.806)"/></svg>